<?xml version="1.0" encoding="utf-8"?>
<!-- Generator: Adobe Illustrator 28.0.0, SVG Export Plug-In . SVG Version: 6.00 Build 0)  -->
<svg version="1.1" id="Capa_1" xmlns="http://www.w3.org/2000/svg" xmlns:xlink="http://www.w3.org/1999/xlink" x="0px" y="0px"
	 viewBox="0 0 79.2 15.7" style="enable-background:new 0 0 79.2 15.7;" xml:space="preserve">
<style type="text/css">
	.st0{fill:#1A2732;}
	.st1{fill:#FFFFFF;}
	.st2{fill:#B7B7B7;}
</style>
<g>
	<path class="st0" d="M11.8,15H4.4C2.5,15,1,13.5,1,11.5V4.4C1,2.5,2.5,1,4.4,1h7.4c1.9,0,3.5,1.6,3.5,3.5v7.1
		C15.3,13.5,13.8,15,11.8,15z"/>
</g>
<g>
	<g>
		<path class="st1" d="M11.2,6.4c-3.1,0-5.4,0-6,0c-0.1,0-0.4,0-0.7,0.2C4.1,6.7,3.9,6.9,3.8,7.1c0-0.7,0-1.4,0-2.1
			c0-0.7,0.6-1.3,1.3-1.3h6c0.7,0,1.3,0.6,1.3,1.3v0C12.5,5.8,11.9,6.4,11.2,6.4z"/>
	</g>
	<g>
		<path class="st1" d="M9.8,9.3c-2,0-3.5,0-4.2,0c-0.2,0-0.8,0-1.2,0.2C4.1,9.7,3.9,10,3.8,10.1c0-0.7,0-1.4,0-2.1
			c0-0.7,0.6-1.3,1.3-1.3h4.6c0.7,0,1.3,0.6,1.3,1.3v0C11.1,8.7,10.5,9.3,9.8,9.3z"/>
	</g>
	<g>
		<path class="st2" d="M7.5,12.3H5.1c-0.7,0-1.3-0.6-1.3-1.3v0c0-0.7,0.6-1.3,1.3-1.3h2.3V12.3z"/>
	</g>
</g>
<g>
	<polygon class="st0" points="18.8,12.1 20.4,12.1 20.4,8.8 23.6,8.8 23.6,7.4 20.4,7.4 20.4,5.4 24,5.4 24,3.9 18.8,3.9 	"/>
	<path class="st0" d="M27.1,6.1c-0.3,0-0.7,0-1,0.1c-0.3,0.1-0.6,0.2-0.8,0.4C25,6.8,24.8,7,24.6,7.2l1,0.8c0.2-0.2,0.4-0.4,0.6-0.5
		s0.5-0.2,0.8-0.2c0.4,0,0.7,0.1,1,0.3c0.2,0.2,0.4,0.5,0.4,0.8v0.2c-0.1,0-0.2-0.1-0.4-0.1c-0.2,0-0.3-0.1-0.5-0.1
		c-0.2,0-0.4,0-0.6,0c-0.4,0-0.8,0.1-1.2,0.2S25,9,24.8,9.3s-0.3,0.6-0.3,1c0,0.4,0.1,0.7,0.3,1c0.2,0.3,0.4,0.5,0.7,0.7
		c0.3,0.2,0.7,0.2,1.1,0.2c0.3,0,0.5,0,0.7-0.1c0.2-0.1,0.4-0.2,0.6-0.3c0.2-0.1,0.3-0.2,0.4-0.4h0.1v0.6h1.5V8.5
		c0-0.8-0.2-1.4-0.7-1.8C28.6,6.3,28,6.1,27.1,6.1z M28.2,10.4c-0.1,0.2-0.3,0.4-0.5,0.5c-0.2,0.1-0.5,0.2-0.8,0.2
		c-0.3,0-0.6-0.1-0.7-0.2C26,10.7,26,10.5,26,10.3c0-0.2,0.1-0.4,0.2-0.6c0.2-0.2,0.5-0.2,0.9-0.2c0.2,0,0.4,0,0.6,0.1
		s0.4,0.1,0.6,0.2C28.3,10,28.3,10.2,28.2,10.4z"/>
	<path class="st0" d="M34.7,10.7c-0.2,0.1-0.5,0.2-0.8,0.2c-0.3,0-0.6-0.1-0.8-0.2c-0.2-0.1-0.4-0.3-0.6-0.6
		c-0.1-0.3-0.2-0.6-0.2-0.9s0.1-0.6,0.2-0.9c0.1-0.2,0.3-0.4,0.6-0.6c0.2-0.1,0.5-0.2,0.8-0.2c0.3,0,0.6,0.1,0.8,0.2
		s0.4,0.3,0.5,0.6l1.4-0.6c-0.2-0.5-0.5-0.9-1-1.2s-1-0.4-1.7-0.4c-0.6,0-1.1,0.1-1.6,0.4s-0.8,0.6-1.1,1.1c-0.3,0.5-0.4,1-0.4,1.6
		s0.1,1.1,0.4,1.6c0.3,0.5,0.6,0.8,1.1,1.1c0.5,0.3,1,0.4,1.6,0.4c0.6,0,1.2-0.1,1.7-0.4c0.5-0.3,0.8-0.7,1-1.2l-1.3-0.6
		C35.1,10.3,34.9,10.5,34.7,10.7z"/>
	<path class="st0" d="M40.3,10.8c-0.3,0-0.4-0.1-0.6-0.2c-0.1-0.1-0.2-0.3-0.2-0.6V7.6H41V6.3h-1.4V4.6h-1.5v1.6h-1v1.3h1v2.7
		c0,0.6,0.2,1.1,0.5,1.4c0.3,0.3,0.8,0.5,1.4,0.5c0.2,0,0.4,0,0.5-0.1c0.2,0,0.3-0.1,0.5-0.1v-1.5c-0.2,0.1-0.3,0.2-0.4,0.2
		C40.5,10.8,40.4,10.8,40.3,10.8z"/>
	<path class="st0" d="M46.1,9.2c0,0.3-0.1,0.6-0.2,0.8c-0.1,0.2-0.3,0.4-0.5,0.6c-0.2,0.1-0.5,0.2-0.8,0.2c-0.3,0-0.6-0.1-0.7-0.3
		c-0.2-0.2-0.3-0.5-0.3-0.9V6.3h-1.5v3.5c0,0.8,0.2,1.4,0.5,1.8c0.4,0.4,0.9,0.7,1.6,0.7c0.3,0,0.5,0,0.7-0.1
		c0.2-0.1,0.4-0.2,0.6-0.3c0.2-0.1,0.3-0.3,0.4-0.5h0.1v0.7h1.4V6.3h-1.5V9.2z"/>
	<path class="st0" d="M52.2,6.1c-0.3,0-0.5,0-0.7,0.1c-0.2,0.1-0.4,0.2-0.6,0.3c-0.2,0.1-0.3,0.3-0.4,0.5h-0.1V6.3H49v5.8h1.5V9.2
		c0-0.3,0.1-0.6,0.2-0.9s0.3-0.5,0.5-0.6s0.5-0.2,0.8-0.2c0.2,0,0.3,0,0.5,0.1c0.2,0,0.3,0.1,0.5,0.2V6.2c-0.1,0-0.2-0.1-0.3-0.1
		C52.4,6.1,52.3,6.1,52.2,6.1z"/>
	<path class="st0" d="M55.9,6.1c-0.3,0-0.7,0-1,0.1c-0.3,0.1-0.6,0.2-0.8,0.4c-0.3,0.2-0.5,0.4-0.7,0.6l1,0.8
		c0.2-0.2,0.4-0.4,0.6-0.5s0.5-0.2,0.8-0.2c0.4,0,0.7,0.1,1,0.3c0.2,0.2,0.4,0.5,0.4,0.8v0.2c-0.1,0-0.2-0.1-0.4-0.1
		c-0.2,0-0.3-0.1-0.5-0.1c-0.2,0-0.4,0-0.6,0c-0.4,0-0.8,0.1-1.2,0.2S53.8,9,53.6,9.3s-0.3,0.6-0.3,1c0,0.4,0.1,0.7,0.3,1
		c0.2,0.3,0.4,0.5,0.7,0.7c0.3,0.2,0.7,0.2,1.1,0.2c0.3,0,0.5,0,0.7-0.1c0.2-0.1,0.4-0.2,0.6-0.3c0.2-0.1,0.3-0.2,0.4-0.4h0.1v0.6
		h1.5V8.5c0-0.8-0.2-1.4-0.7-1.8C57.5,6.3,56.8,6.1,55.9,6.1z M57,10.4c-0.1,0.2-0.3,0.4-0.5,0.5c-0.2,0.1-0.5,0.2-0.8,0.2
		c-0.3,0-0.6-0.1-0.7-0.2c-0.2-0.2-0.2-0.3-0.2-0.6c0-0.2,0.1-0.4,0.2-0.6c0.2-0.2,0.5-0.2,0.9-0.2c0.2,0,0.4,0,0.6,0.1
		s0.4,0.1,0.6,0.2C57.2,10,57.1,10.2,57,10.4z"/>
	<path class="st0" d="M65.2,4.5c-0.6-0.3-1.4-0.5-2.2-0.5h-2.8v8.1h2.8c0.9,0,1.6-0.2,2.2-0.5c0.6-0.3,1.1-0.8,1.4-1.4
		c0.3-0.6,0.5-1.3,0.5-2.1c0-0.8-0.2-1.5-0.5-2.1C66.3,5.3,65.8,4.8,65.2,4.5z M65.3,9.4c-0.2,0.4-0.5,0.7-0.9,0.9
		c-0.4,0.2-0.9,0.3-1.5,0.3h-1.1V5.4h1.1c0.6,0,1.1,0.1,1.5,0.3s0.7,0.5,0.9,0.9C65.5,7,65.6,7.5,65.6,8C65.6,8.5,65.5,9,65.3,9.4z"
		/>
	<path class="st0" d="M76.3,6.4c-0.2-0.5-0.5-1-0.9-1.4c-0.4-0.4-0.8-0.7-1.4-0.9c-0.5-0.2-1.1-0.3-1.7-0.3c-0.6,0-1.2,0.1-1.7,0.3
		s-1,0.5-1.4,0.9c-0.4,0.4-0.7,0.8-0.9,1.4c-0.2,0.5-0.3,1.1-0.3,1.7c0,0.6,0.1,1.1,0.3,1.7c0.2,0.5,0.5,1,0.9,1.4
		c0.4,0.4,0.8,0.7,1.4,0.9s1.1,0.3,1.7,0.3c0.6,0,1.2-0.1,1.7-0.3c0.5-0.2,1-0.5,1.4-0.9c0.4-0.4,0.7-0.8,0.9-1.4
		c0.2-0.5,0.3-1.1,0.3-1.7C76.6,7.4,76.5,6.9,76.3,6.4z M74.7,9.5c-0.2,0.4-0.6,0.7-1,1c-0.4,0.2-0.9,0.4-1.4,0.4
		c-0.5,0-1-0.1-1.4-0.4c-0.4-0.2-0.7-0.6-1-1c-0.2-0.4-0.4-0.9-0.4-1.5c0-0.6,0.1-1,0.4-1.5s0.6-0.7,1-1s0.9-0.4,1.4-0.4
		c0.5,0,1,0.1,1.4,0.4s0.7,0.6,1,1s0.4,0.9,0.4,1.5C75.1,8.6,75,9.1,74.7,9.5z"/>
</g>
</svg>
