<?xml version="1.0" encoding="UTF-8"?>
<svg width="140px" height="32px" viewBox="0 0 140 32" version="1.1" xmlns="http://www.w3.org/2000/svg" xmlns:xlink="http://www.w3.org/1999/xlink">
    <title>logo</title>
    <g id="Website" stroke="none" stroke-width="1" fill="none" fill-rule="evenodd">
        <g id="Learning-Details" transform="translate(-146.000000, -19.000000)">
            <g id="Header-v3" transform="translate(0.000000, 15.000000)">
                <g id="Top" transform="translate(0.000000, 4.000000)">
                    <g id="logo" transform="translate(146.000000, 0.000000)">
                        <g transform="translate(0.000000, 2.000000)" id="Path">
                            <polygon fill="#0052CC" points="4.46426855 9 0 9 4.55355366 18 0 27 4.46426855 27 8.92857143 18"></polygon>
                            <polygon fill="#1F76FE" points="24.8360424 0 20.9001332 0 16.9642857 8.95734894 20.9001332 18 25 18 20.9001332 8.95734894"></polygon>
                            <polygon fill="#0052CC" points="13.068154 9 8.92857143 9 12.9870037 18 8.92857143 27 12.9058534 27 16.9642857 18"></polygon>
                            <polygon fill="#1F76FE" points="16.9642857 0 12.8643886 0 8.92857143 8.99999203 12.8643886 18 16.9642857 18 13.0284067 8.99999203"></polygon>
                        </g>
                        <g id="cashflow" transform="translate(32.157631, 4.228049)" fill="#172336" fill-rule="nonzero">
                            <path d="M6.5370944,18.4506154 C7.34644894,18.4506154 8.01794639,18.2149242 8.55158675,17.7435419 C9.08522711,17.2721596 9.3698353,16.6896022 9.40541133,15.9958698 L12.4605024,15.9958698 C12.4249264,16.8941644 12.1447652,17.7324244 11.6200188,18.5106499 C11.0952725,19.2888755 10.383752,19.9047854 9.48545738,20.3583797 C8.58716277,20.811974 7.61771612,21.0387711 6.57711742,21.0387711 C4.55817807,21.0387711 2.95725699,20.3850617 1.77435419,19.0776428 C0.591451398,17.770224 0,15.9647407 0,13.6611932 L0,13.327668 C0,11.1308485 0.587004395,9.3720588 1.76101318,8.05129891 C2.93502197,6.73053903 4.53594305,6.07015908 6.56377641,6.07015908 C8.28031957,6.07015908 9.67890201,6.57044692 10.7595237,7.57102259 C11.8401455,8.57159826 12.4071383,9.88568765 12.4605024,11.5132907 L9.40541133,11.5132907 C9.3698353,10.6861482 9.08745061,10.0057567 8.55825726,9.47211637 C8.0290639,8.93847601 7.35534295,8.67165583 6.5370944,8.67165583 C5.48760169,8.67165583 4.67824715,9.05187459 4.10903076,9.8123121 C3.53981438,10.5727496 3.25075919,11.7267469 3.24186518,13.2743039 L3.24186518,13.7946033 C3.24186518,15.3599483 3.52424987,16.5272866 4.08901925,17.2966181 C4.65378863,18.0659496 5.46981368,18.4506154 6.5370944,18.4506154 Z" id="Path"></path>
                            <path d="M23.1335398,20.771951 C22.9912357,20.4962368 22.8667196,20.0470895 22.7599916,19.4245091 C21.7282869,20.5006838 20.465338,21.0387711 18.971145,21.0387711 C17.5214221,21.0387711 16.3385193,20.6251999 15.4224366,19.7980573 C14.506354,18.9709148 14.0483127,17.9481041 14.0483127,16.7296253 C14.0483127,15.1909622 14.6197526,14.0102829 15.7626324,13.1875874 C16.9055121,12.3648918 18.5397857,11.953544 20.6654532,11.953544 L22.6532635,11.953544 L22.6532635,11.0063324 C22.6532635,10.2592359 22.4442544,9.661114 22.0262361,9.2119667 C21.6082178,8.76281939 20.9722964,8.53824574 20.1184718,8.53824574 C19.3802693,8.53824574 18.7754769,8.72279637 18.3040946,9.09189761 C17.8327123,9.46099886 17.5970211,9.93015768 17.5970211,10.4993741 L14.3551559,10.4993741 C14.3551559,9.70780753 14.6175291,8.96738153 15.1422755,8.27809607 C15.6670218,7.5888106 16.3807658,7.04849974 17.2835074,6.65716348 C18.186249,6.26582721 19.1934952,6.07015908 20.3052459,6.07015908 C21.9951071,6.07015908 23.342549,6.49484787 24.3475716,7.34422544 C25.3525943,8.19360301 25.8684467,9.38762331 25.8951287,10.9262863 L25.8951287,17.4366987 C25.8951287,18.7352236 26.0774558,19.7713753 26.4421101,20.5451538 L26.4421101,20.771951 L23.1335398,20.771951 Z M19.5714904,18.4372744 C20.2118589,18.4372744 20.8144278,18.2816293 21.3791971,17.9703391 C21.9439665,17.6590489 22.3686553,17.2410306 22.6532635,16.7162842 L22.6532635,13.9947184 L20.9055913,13.9947184 C19.7049005,13.9947184 18.8021589,14.2037276 18.1973665,14.6217458 C17.5925741,15.0397641 17.2901779,15.6312155 17.2901779,16.3961 C17.2901779,17.0186804 17.4969635,17.5145213 17.9105348,17.8836225 C18.3241061,18.2527238 18.877758,18.4372744 19.5714904,18.4372744 Z" id="Shape"></path>
                            <path d="M36.9817374,16.8496943 C36.9817374,16.2715839 36.7438227,15.8313306 36.2679934,15.5289344 C35.7921641,15.2265382 35.0028211,14.9597181 33.8999643,14.7284739 C32.7971076,14.4972297 31.876578,14.2037276 31.1383755,13.8479673 C29.5196664,13.0652948 28.7103118,11.931309 28.7103118,10.44601 C28.7103118,9.20084919 29.2350582,8.16025049 30.2845509,7.32421393 C31.3340436,6.48817736 32.6681445,6.07015908 34.2868536,6.07015908 C36.0122908,6.07015908 37.4064262,6.49707137 38.4692599,7.35089594 C39.5320936,8.20472052 40.0635105,9.31202426 40.0635105,10.6728072 L36.8216453,10.6728072 C36.8216453,10.0502268 36.5904011,9.53215091 36.1279128,9.11857963 C35.6654245,8.70500835 35.0517381,8.49822272 34.2868536,8.49822272 C33.5753331,8.49822272 32.9949992,8.66276183 32.5458519,8.99184005 C32.0967046,9.32091827 31.872131,9.76117156 31.872131,10.3125999 C31.872131,10.8106643 32.0811401,11.1975535 32.4991584,11.4732677 C32.9171767,11.7489819 33.7621072,12.0269196 35.0339501,12.3070808 C36.305793,12.587242 37.3041451,12.9207672 38.0290066,13.3076564 C38.7538681,13.6945457 39.2919555,14.1592575 39.6432687,14.7017919 C39.9945819,15.2443263 40.1702386,15.9024827 40.1702386,16.6762612 C40.1702386,17.9747861 39.6321512,19.0265023 38.5559765,19.8314098 C37.4798017,20.6363174 36.0701018,21.0387711 34.3268766,21.0387711 C33.1439738,21.0387711 32.0900341,20.825315 31.1650575,20.3984027 C30.2400809,19.9714904 29.5196664,19.384486 29.003814,18.6373895 C28.4879617,17.890293 28.2300355,17.0853855 28.2300355,16.2226669 L31.3785136,16.2226669 C31.4229837,16.9875514 31.7120389,17.5767793 32.2456792,17.9903506 C32.7793196,18.4039219 33.4863931,18.6107075 34.3668997,18.6107075 C35.2207242,18.6107075 35.8699867,18.4483919 36.314687,18.1237607 C36.7593873,17.7991295 36.9817374,17.3744407 36.9817374,16.8496943 Z" id="Path"></path>
                            <path d="M45.7870336,7.91121832 C46.8454203,6.68384549 48.1839682,6.07015908 49.8026773,6.07015908 C52.8800034,6.07015908 54.4409014,7.82672526 54.4853714,11.3398576 L54.4853714,20.771951 L51.2435063,20.771951 L51.2435063,11.4599267 C51.2435063,10.463798 51.0278266,9.75894806 50.5964673,9.34537678 C50.165108,8.93180551 49.5314101,8.72501987 48.6953736,8.72501987 C47.3968487,8.72501987 46.427402,9.30313026 45.7870336,10.459351 L45.7870336,20.771951 L42.5451684,20.771951 L42.5451684,0.280161188 L45.7870336,0.280161188 L45.7870336,7.91121832 Z" id="Path"></path>
                            <path d="M66.7059659,2.85497592 C65.7987773,2.73045984 65.0161048,2.66820179 64.3579484,2.66820179 C62.6147232,2.66820179 61.7431106,3.48645034 61.7431106,5.12294745 L61.7431106,6.33697926 L64.6781326,6.33697926 L64.6781326,8.73836088 L61.7431106,8.73836088 L61.7431106,20.771951 L58.5012454,20.771951 L58.5012454,8.73836088 L56.2999789,8.73836088 L56.2999789,6.33697926 L58.5012454,6.33697926 L58.5012454,5.04290139 C58.5101394,3.4152983 58.9926392,2.16791396 59.9487449,1.30074837 C60.9048505,0.433582792 62.2545159,0 63.9977411,0 C65.0828098,0 67.0661732,0.213456144 69.9478311,0.640368431 L69.9478311,20.771951 L66.7059659,20.771951 L66.7059659,2.85497592 Z" id="Path"></path>
                            <path d="M72.5228761,13.421055 C72.5228761,12.0069081 72.8030373,10.7328417 73.3633597,9.59885596 C73.9236821,8.46487019 74.7108016,7.59325761 75.7247183,6.9840182 C76.738635,6.37477879 77.9037497,6.07015908 79.2200626,6.07015908 C81.1678499,6.07015908 82.7487595,6.6971865 83.9627913,7.95124135 C85.1768231,9.20529619 85.8327561,10.8684753 85.9305901,12.9407787 L85.9439311,13.7012162 C85.9439311,15.1242572 85.6704405,16.3961 85.1234591,17.5167448 C84.5764777,18.6373895 83.7938052,19.5045551 82.7754415,20.1182415 C81.7570778,20.7319279 80.5808455,21.0387711 79.2467446,21.0387711 C77.2100173,21.0387711 75.5801907,20.3606032 74.3572649,19.0042673 C73.134339,17.6479314 72.5228761,15.8402247 72.5228761,13.5811471 L72.5228761,13.421055 Z M75.7647413,13.7012162 C75.7647413,15.1865152 76.0715845,16.3494065 76.6852709,17.1898901 C77.2989573,18.0303736 78.1527819,18.4506154 79.2467446,18.4506154 C80.3407074,18.4506154 81.1923084,18.0237031 81.8015479,17.1698785 C82.4107873,16.316054 82.715407,15.0664461 82.715407,13.421055 C82.715407,11.962438 82.4018933,10.8062173 81.7748658,9.95239269 C81.1478384,9.09856812 80.2962373,8.67165583 79.2200626,8.67165583 C78.1616759,8.67165583 77.3211923,9.09189761 76.6986119,9.93238118 C76.0760315,10.7728647 75.7647413,12.0291431 75.7647413,13.7012162 Z" id="Shape"></path>
                            <polygon id="Path" points="100.966138 16.302713 103.260791 6.33697926 106.42261 6.33697926 102.487013 20.771951 99.8188107 20.771951 96.7236967 10.8595813 93.6819466 20.771951 91.0137448 20.771951 87.0648062 6.33697926 90.2266253 6.33697926 92.5613019 16.1959849 95.5230059 6.33697926 97.9644105 6.33697926"></polygon>
                        </g>
                    </g>
                </g>
            </g>
        </g>
    </g>
</svg>